<svg width="203" height="301" xmlns="http://www.w3.org/2000/svg" xmlns:xlink="http://www.w3.org/1999/xlink" overflow="hidden"><defs><clipPath id="clip0"><path d="M384 104 587 104 587 405 384 405Z" fill-rule="evenodd" clip-rule="evenodd"/></clipPath></defs><g clip-path="url(#clip0)" transform="translate(-384 -104)"><path d="M480 283 512 283C544.033 283 570 308.968 570 341L570 399 422 399 422 341C422 308.968 447.967 283 480 283Z" stroke="#000000" stroke-width="6" stroke-miterlimit="8" fill="#FFFF00" fill-rule="evenodd"/><path d="M16 0 16 0C24.8366 0 32.0001 7.16345 32.0001 16L32 51 0 51 0 16C0 7.16345 7.16346 0 16 0Z" stroke="#000000" stroke-width="6" stroke-miterlimit="8" fill="#F9D9C3" fill-rule="evenodd" transform="matrix(1 0 0 -1 481 297)"/><path d="M426 206C426 168.445 456.445 138 494 138L506 138C543.555 138 574 168.445 574 206L574 206C574 243.555 543.555 274 506 274L494 274C456.445 274 426 243.555 426 206Z" stroke="#000000" stroke-width="6" stroke-miterlimit="8" fill="#F9D9C3" fill-rule="evenodd"/><path d="M0 0 90.0001 0C98.2844-3.34198e-15 105 6.71575 105 15.0001L105 30 0 30Z" fill-rule="evenodd" transform="matrix(-4.37114e-08 1 1 4.37114e-08 420 180)"/><path d="M456.083 161.095C471.159 148.445 489.225 145.155 496.435 153.747 503.644 162.339 497.267 179.559 482.191 192.209 467.114 204.859 449.048 208.149 441.839 199.557 434.63 190.965 441.007 173.745 456.083 161.095Z" fill-rule="evenodd"/><path d="M583 181 583 267.5C583 276.06 576.06 283 567.5 283L552 283 552 181Z" fill-rule="evenodd"/><path d="M411 319.167C411 310.238 418.238 303 427.167 303L551.833 303C560.762 303 568 310.238 568 319.167L568 383.833C568 392.762 560.762 400 551.833 400L427.167 400C418.238 400 411 392.762 411 383.833Z" stroke="#000000" stroke-width="6" stroke-miterlimit="8" fill="#E6E6E6" fill-rule="evenodd"/><path d="M477 349.5C477 342.044 483.044 336 490.5 336 497.956 336 504 342.044 504 349.5 504 356.956 497.956 363 490.5 363 483.044 363 477 356.956 477 349.5Z" fill="#A6A6A6" fill-rule="evenodd"/><path d="M543.24 297.357C543.691 293.938 546.828 291.532 550.247 291.983L551.104 292.096C554.523 292.547 556.929 295.684 556.478 299.103L555.123 309.374C554.672 312.793 551.535 315.199 548.116 314.748L547.259 314.635C543.84 314.184 541.434 311.047 541.885 307.628Z" stroke="#000000" stroke-width="6" stroke-miterlimit="8" fill="#F9D9C3" fill-rule="evenodd"/><path d="M523.336 317.895C520.198 310.548 523.611 302.049 530.958 298.912L530.958 298.912C538.305 295.775 546.804 299.188 549.941 306.535L581.852 381.269C584.989 388.616 581.576 397.115 574.229 400.252L574.229 400.252C566.882 403.389 558.384 399.977 555.246 392.63Z" stroke="#000000" stroke-width="6" stroke-miterlimit="8" fill="#F9D9C3" fill-rule="evenodd"/><path d="M0 6.24413C-7.2723e-16 2.79559 2.7956-1.45446e-15 6.24414-1.45446e-15L7.1083 0C10.5568-1.45446e-15 13.3524 2.79559 13.3524 6.24413L13.3524 16.6044C13.3524 20.0529 10.5568 22.8485 7.1083 22.8485L6.24414 22.8485C2.7956 22.8485 0 20.0529 0 16.6044Z" stroke="#000000" stroke-width="6" stroke-miterlimit="8" fill="#F9D9C3" fill-rule="evenodd" transform="matrix(-0.501438 -0.865193 -0.865193 0.501438 436.976 370.429)"/><path d="M0 14.4647C-3.02279e-15 6.47608 6.47609 0 14.4648 0L14.4648 0C22.4534-3.02279e-15 28.9295 6.47608 28.9295 14.4647L28.9294 33.0211C28.9294 41.0097 22.4534 47.4858 14.4647 47.4858L14.4648 47.4858C6.47609 47.4858 0 41.0097 0 33.021Z" stroke="#000000" stroke-width="6" stroke-miterlimit="8" fill="#F9D9C3" fill-rule="evenodd" transform="matrix(0.00945109 -0.999955 -0.999955 -0.00945109 434.717 399.961)"/><path d="M491 219C491 225.627 487.523 231 483.235 231L463.765 231C459.477 231 456 225.627 456 219" stroke="#000000" stroke-width="6" stroke-miterlimit="8" fill="none" fill-rule="evenodd"/><rect x="490" y="222" width="25" height="5"/><path d="M466 219C466 214.029 468.686 210 472 210 475.314 210 478 214.029 478 219 478 223.971 475.314 228 472 228 468.686 228 466 223.971 466 219Z" fill-rule="evenodd"/><path d="M513 244C513 249.523 507.851 254 501.5 254L501.5 254C495.149 254 490 249.523 490 244" stroke="#FF0000" stroke-width="6" stroke-miterlimit="8" fill="none" fill-rule="evenodd"/><path d="M548 218C548 225.18 544.234 231 539.588 231L520.412 231C515.766 231 512 225.18 512 218" stroke="#000000" stroke-width="6" stroke-miterlimit="8" fill="none" fill-rule="evenodd"/><path d="M523 218.5C523 213.253 525.686 209 529 209 532.314 209 535 213.253 535 218.5 535 223.747 532.314 228 529 228 525.686 228 523 223.747 523 218.5Z" fill-rule="evenodd"/><path d="M163 76.5001C163 118.75 126.511 153 81.5 153 36.4888 153 1.0376e-14 118.75 0 76.5001 2.07521e-14 76.4858 4.25016e-06 76.4716 1.27505e-05 76.4573L81.5 76.5001Z" fill-rule="evenodd" transform="matrix(1 0 0 -1 420 258)"/></g></svg>